<?xml version="1.0" encoding="utf-8"?>
<!-- Generator: Adobe Illustrator 16.0.0, SVG Export Plug-In . SVG Version: 6.00 Build 0)  -->
<!DOCTYPE svg PUBLIC "-//W3C//DTD SVG 1.1//EN" "http://www.w3.org/Graphics/SVG/1.1/DTD/svg11.dtd">
<svg version="1.1" id="Layer_1" xmlns="http://www.w3.org/2000/svg" xmlns:xlink="http://www.w3.org/1999/xlink" x="0px" y="0px"
	 width="1000px" height="687.508px" viewBox="0 0 1000 687.508" enable-background="new 0 0 1000 687.508" xml:space="preserve">
<g>
	<path fill="#54575A" d="M295.218,227.88v5.023c0,7.305-5.911,13.221-13.209,13.221h-81.881v51.382h68.216
		c7.287,0,13.214,5.916,13.214,13.22v5.035c0,7.292-5.927,13.209-13.214,13.209h-68.216v53.1h81.881
		c7.299,0,13.209,5.916,13.209,13.21v5.045c0,7.282-5.911,13.21-13.209,13.21H177.328c-7.298,0-13.209-5.928-13.209-13.21V227.88
		c0-7.304,5.911-13.22,13.209-13.22h104.681C289.307,214.66,295.218,220.576,295.218,227.88 M399.072,298.916l-23.785-3.415
		c-9.022-1.366-14.763-3.779-19.819-8.328c-4.33-4.055-6.439-9.585-6.439-16.922c0-18.244,16.624-26.408,33.1-26.408
		c17.654,0,30.874,7.294,38.949,11.59c5.823,3.107,14.79,2.953,19.588-1.189l1.41-1.3c6.665-6.137,6.495-16.966-0.7-22.474
		c-12.03-9.188-37.038-17.518-58.113-17.518c-41.726,0-68.688,23.389-68.688,59.579c0,16.679,4.555,29.228,13.941,38.326
		c8.934,8.682,21.086,13.893,38.233,16.416l24.198,3.569c9.645,1.443,15.231,3.603,19.279,7.491
		c4.39,4.241,6.703,10.576,6.703,18.332c0,17.152-12.096,26.594-35.842,26.594c-19.065,0-33.706-9.563-43.422-15.931
		c-4.61-3.029-13.176-4.483-18.216-0.176l-2.379,2.148c-6.759,6.125-6.241,16.58,0.606,22.584
		c14.382,12.604,38.426,23.344,62.982,23.344c20.794,0,37.33-5.563,50.347-15.665c13.699-10.631,20.942-25.813,20.942-43.901
		c0-18.167-5.067-32.125-15.065-41.456C428.492,306.22,416.825,301.505,399.072,298.916 M86.82,298.916l-23.791-3.415
		c-9.028-1.366-14.768-3.779-19.813-8.328c-4.341-4.055-6.45-9.585-6.45-16.922c0-18.244,16.629-26.408,33.099-26.408
		c17.654,0,30.886,7.294,38.944,11.59c5.828,3.107,14.801,2.953,19.593-1.189l1.41-1.3c6.665-6.137,6.5-16.966-0.7-22.474
		c-12.024-9.188-37.038-17.518-58.107-17.518c-41.731,0-68.695,23.389-68.695,59.579c0,16.679,4.561,29.228,13.947,38.326
		c8.945,8.682,21.081,13.893,38.228,16.416l24.198,3.569c9.646,1.443,15.231,3.603,19.28,7.491
		c4.39,4.241,6.704,10.576,6.704,18.332c0,17.152-12.097,26.594-35.843,26.594c-19.064,0-33.706-9.563-43.417-15.931
		c-4.616-3.029-13.176-4.483-18.221-0.176l-2.38,2.148c-6.759,6.125-6.236,16.58,0.611,22.584
		C19.8,404.489,43.839,415.229,68.4,415.229c20.789,0,37.324-5.563,50.346-15.665c13.694-10.631,20.937-25.813,20.937-43.901
		c0-18.167-5.067-32.125-15.06-41.456C116.229,306.22,104.563,301.505,86.82,298.916 M628.335,394.573
		c3.658,9.717-3.52,20.096-13.897,20.096h-3.724c-6.235,0-11.811-3.9-13.953-9.772l-9.932-27.244h-81.832l-9.926,27.244
		c-2.143,5.872-7.717,9.772-13.953,9.772h-3.723c-10.378,0-17.556-10.379-13.898-20.096l64.652-171.441
		c2.176-5.784,7.706-9.617,13.886-9.617h7.762c6.169,0,11.711,3.833,13.887,9.617L628.335,394.573 M575.867,348.193l-29.954-81.071
		l-29.948,81.071H575.867 M986.791,246.124c7.298,0,13.209-5.916,13.209-13.221v-5.023c0-7.304-5.911-13.22-13.209-13.22H882.115
		c-7.298,0-13.22,5.916-13.22,13.22v172.444c0,7.282,5.922,13.21,13.22,13.21h104.676c7.298,0,13.209-5.928,13.209-13.21v-5.045
		c0-7.294-5.911-13.21-13.209-13.21h-81.876v-53.1h68.204c7.298,0,13.22-5.917,13.22-13.209v-5.035c0-7.304-5.922-13.22-13.22-13.22
		h-68.204v-51.382H986.791 M819.348,213.515h-8.246c-5.712,0-10.901,3.272-13.38,8.417l-56.113,116.634l-56.124-116.634
		c-2.468-5.145-7.668-8.417-13.38-8.417h-8.246c-8.202,0-14.846,6.654-14.846,14.861v171.441c0,8.197,6.644,14.852,14.846,14.852
		h6.317c8.202,0,14.846-6.654,14.846-14.852V289.948l37.137,79.188c2.452,5.212,7.685,8.539,13.452,8.539h12.002
		c5.751,0,10.984-3.327,13.436-8.539l37.148-79.188v109.869c0,8.197,6.643,14.852,14.845,14.852h6.307
		c8.202,0,14.856-6.654,14.856-14.852V228.376C834.204,220.169,827.55,213.515,819.348,213.515 M1000,508.795
		c0,23.058-16.569,42.294-44.761,42.294h-26.104v41.742c0,5.563-4.511,10.079-10.075,10.079h-6.511
		c-5.568,0-10.08-4.517-10.08-10.079V476.594c0-5.564,4.512-10.081,10.08-10.081h42.69C983.431,466.513,1000,485.748,1000,508.795
		 M973.334,508.795c0-11.127-7.623-18.651-19.615-18.651h-24.584v37.325h24.584C965.711,527.469,973.334,519.855,973.334,508.795
		 M147.142,466.513h-4.726c-4.627,0-8.665,3.151-9.783,7.656l-19.346,77.778l-22.623-78.152c-1.25-4.308-5.2-7.282-9.678-7.282
		h-4.748c-4.479,0-8.439,2.975-9.678,7.282l-22.606,78.152l-19.362-77.778c-1.118-4.505-5.145-7.656-9.777-7.656h-4.732
		c-6.549,0-11.369,6.17-9.777,12.525l29.062,116.238c1.124,4.483,5.15,7.634,9.777,7.634h7.21c4.489,0,8.439-2.963,9.689-7.271
		l22.573-77.689l22.574,77.689c1.25,4.308,5.189,7.271,9.678,7.271h7.21c4.627,0,8.654-3.15,9.783-7.634l29.056-116.238
		C158.511,472.683,153.697,466.513,147.142,466.513 M878.888,534.332c0,25.911-0.484,41.235-13.909,54.675
		c-9.148,9.244-20.667,14.278-36.382,14.278c-15.727,0-27.244-5.034-36.383-14.278c-13.435-13.439-13.92-28.764-13.92-54.675
		c0-25.9,0.485-41.247,13.92-54.676c9.139-9.232,20.656-14.289,36.383-14.289c15.715,0,27.233,5.057,36.382,14.289
		C878.403,493.085,878.888,508.432,878.888,534.332 M852.222,534.332c0-25.9-1.537-32.39-6.576-38.097
		c-3.813-4.384-9.816-7.248-17.049-7.248c-7.244,0-13.242,2.864-17.054,7.248c-5.046,5.707-6.566,12.196-6.566,38.097
		c0,25.911,1.521,32.278,6.566,38.008c3.812,4.285,9.81,7.325,17.054,7.325c7.232,0,13.236-3.04,17.049-7.325
		C850.685,566.61,852.222,560.243,852.222,534.332 M272.418,534.332c0,25.911-0.474,41.235-13.897,54.675
		c-9.149,9.244-20.667,14.278-36.394,14.278c-15.715,0-27.233-5.034-36.382-14.278c-13.424-13.439-13.909-28.764-13.909-54.675
		c0-25.9,0.485-41.247,13.909-54.676c9.149-9.232,20.667-14.289,36.382-14.289c15.727,0,27.245,5.057,36.394,14.289
		C271.945,493.085,272.418,508.432,272.418,534.332 M245.747,534.332c0-25.9-1.52-32.39-6.566-38.097
		c-3.812-4.384-9.81-7.248-17.054-7.248c-7.232,0-13.236,2.864-17.048,7.248c-5.04,5.707-6.566,12.196-6.566,38.097
		c0,25.911,1.526,32.278,6.566,38.008c3.812,4.285,9.816,7.325,17.048,7.325c7.244,0,13.242-3.04,17.054-7.325
		C244.227,566.61,245.747,560.243,245.747,534.332 M682.103,592.831v-47.45h45.911v47.45c0,5.563,4.512,10.079,10.086,10.079h6.5
		c5.575,0,10.086-4.517,10.086-10.079V475.833c0-5.574-4.511-10.08-10.086-10.08h-6.5c-5.574,0-10.086,4.506-10.086,10.08v45.929
		h-45.911v-45.929c0-5.574-4.512-10.08-10.075-10.08h-6.511c-5.569,0-10.086,4.506-10.086,10.08v116.998
		c0,5.563,4.517,10.079,10.086,10.079h6.511C677.591,602.91,682.103,598.394,682.103,592.831 M616.955,593.921
		c9.722-7.535,14.866-18.287,14.866-31.122s-3.624-22.717-10.73-29.349c-5.954-5.674-14.179-9.012-26.644-10.829l-16.349-2.358
		c-5.954-0.902-9.723-2.479-12.994-5.42c-2.732-2.544-4.049-6.069-4.049-10.774c0-11.722,10.829-16.966,21.571-16.966
		c11.54,0,20.133,4.584,25.807,7.613l0.418,0.22c1.95,1.036,4.391,1.608,6.858,1.608c3.194,0,6.004-0.914,7.965-2.6l0.969-0.892
		c2.507-2.314,3.862-5.607,3.702-9.013c-0.148-3.283-1.702-6.29-4.264-8.251c-7.91-6.048-25.283-12.294-40.679-12.294
		c-29.398,0-48.407,16.547-48.407,42.149c0,11.81,3.261,20.711,9.948,27.211c6.329,6.147,14.895,9.827,26.93,11.601l16.641,2.445
		c6.374,0.947,10.025,2.347,12.609,4.837c2.775,2.677,4.241,6.741,4.241,11.755c0,14.134-12.758,17.098-23.449,17.098
		c-12.807,0-22.678-6.479-29.211-10.752c-2.076-1.366-4.897-2.171-7.547-2.171c-2.55,0-4.759,0.738-6.428,2.159l-1.625,1.477
		c-2.413,2.182-3.724,5.167-3.701,8.405c0.032,3.371,1.536,6.61,4.131,8.891c11.325,9.927,28.633,16.349,44.083,16.349
		C595.643,604.948,607.535,601.236,616.955,593.921 M505.427,465.753h-6.026c-2.996,0-5.839,1.344-7.761,3.646l-45.901,55.314
		v-48.881c0-5.574-4.511-10.08-10.085-10.08h-6.494c-5.575,0-10.086,4.506-10.086,10.08v116.998c0,5.563,4.511,10.079,10.086,10.079
		h6.494c5.575,0,10.085-4.517,10.085-10.079v-31.453l17.341-20.943l32.841,57.408c1.79,3.129,5.117,5.067,8.741,5.067h6.836
		c7.739,0,12.603-8.35,8.764-15.07l-38.514-67.511l31.453-38.073C518.625,475.679,513.943,465.753,505.427,465.753 M385.351,602.91
		h-6.858c-3.619,0-6.951-1.938-8.741-5.067l-28.473-49.696h-18.569v44.685c0,5.563-4.517,10.079-10.075,10.079h-6.511
		c-5.574,0-10.086-4.517-10.086-10.079V476.594c0-5.564,4.512-10.081,10.086-10.081h43.164c27.718,0,44.094,18.762,44.094,41.445
		c0,16.183-8.957,29.514-24.567,35.805l25.278,44.044C397.965,594.538,393.101,602.91,385.351,602.91 M366.909,508.046
		c0-10.676-7.436-17.902-19.053-17.902h-25.146v35.716h25.146C359.473,525.859,366.909,518.61,366.909,508.046"/>
	<path fill="#FED104" d="M500.001,37.622c-30.615,0-59.87,11.413-82.372,32.136c-22.237,20.491-35.953,48.231-38.707,78.174
		c0,0.056,0.011,0.11,0,0.154c-0.215,1.885-0.407,3.681-0.578,5.344c-0.755,7.667-7.205,13.474-14.911,13.474H15.002
		c-8.29,0-14.999-6.71-14.999-15.006v-7.623c0-8.284,6.709-15.005,14.999-15.005h328.589c6.351-33.358,23.234-63.874,48.54-87.186
		C421.596,14.95,459.906,0,500.001,0c40.096,0,78.406,14.95,107.87,42.083c25.306,23.312,42.193,53.828,48.545,87.186h328.585
		c8.289,0,14.999,6.721,14.999,15.005v7.623c0,8.296-6.71,15.006-14.999,15.006H636.57c-7.706,0-14.157-5.807-14.912-13.474
		c-0.171-1.663-0.363-3.459-0.578-5.344c-0.011-0.044,0.011-0.099,0.011-0.154c-2.759-29.942-16.48-57.683-38.712-78.174
		C559.872,49.035,530.617,37.622,500.001,37.622"/>
	<path fill="#00A84F" d="M1000,672.503v-7.635c0-8.273-6.71-15.004-14.999-15.004H15.002c-8.29,0-14.999,6.73-14.999,15.004v7.635
		c0,8.273,6.709,15.005,14.999,15.005h969.999C993.29,687.508,1000,680.776,1000,672.503"/>
	<path fill="#54575A" d="M965.671,601.754c-0.236-0.485-0.313-0.881-0.313-2.05v-13.727h-2.765c-1.002,0-1.399-0.087-1.834-0.318
		c-0.612-0.331-0.964-0.959-0.964-1.764c0-0.815,0.352-1.453,0.964-1.773c0.435-0.242,0.832-0.309,1.834-0.309h10.234
		c1.002,0,1.377,0.066,1.817,0.309c0.629,0.32,0.97,0.958,0.97,1.773c0,0.805-0.341,1.433-0.97,1.764
		c-0.44,0.231-0.815,0.318-1.817,0.318h-2.765v13.727c0,1.169-0.077,1.564-0.325,2.05c-0.363,0.749-1.118,1.167-2.033,1.167
		C966.801,602.921,966.046,602.503,965.671,601.754 M986.531,596.642l-3.228-6.213v9.275c0,1.169-0.077,1.564-0.313,2.05
		c-0.369,0.749-1.129,1.167-2.044,1.167c-0.898,0-1.658-0.418-2.027-1.167c-0.236-0.485-0.319-0.881-0.319-2.05v-14.563
		c0-0.859,0.027-1.906,0.782-2.644c0.595-0.584,1.295-0.838,2.065-0.838c0.584,0,1.174,0.154,1.543,0.386
		c0.462,0.286,0.925,0.849,1.366,1.652l4.951,9.243l4.941-9.243c0.44-0.804,0.903-1.366,1.366-1.652
		c0.369-0.231,0.958-0.386,1.542-0.386c0.76,0,1.472,0.254,2.055,0.838c0.766,0.737,0.788,1.784,0.788,2.644v14.563
		c0,1.169-0.077,1.564-0.325,2.05c-0.358,0.749-1.118,1.167-2.021,1.167c-0.908,0-1.669-0.418-2.038-1.167
		c-0.237-0.485-0.319-0.881-0.319-2.05v-9.275l-3.223,6.213c-0.496,0.948-1.504,1.675-2.766,1.675
		C988.035,598.316,987.028,597.59,986.531,596.642"/>
</g>
</svg>
